# xmcd
#
# Track frame offsets:
#	150
#	15437
#	35680
#	49987
#	69422
#	79197
#	97805
#	108917
#	122355
#	132185
#	145800
#	159145
#	172555
#	181192
#	191427
#	204955
#	217520
#	229660
#	247640
#	260550
#	273687
#
# Disc length: 3796
#
# Revision: 2
# Processed by: cddbd v1.5.1PL0 Copyright (c) Steve Scherf et al.
# Submitted via: audiograbber 1.83.01
# Normalized: r1:DSETVAR2
#
DISCID=000ed215
DTITLE=Various Artist - Kompilace-Zlato ceske country 2-CD1
DYEAR=1900
DGENRE=
TTITLE0=Jan Werich - Stojvudce Prihoda
TTITLE1=Karel Gott - Zdvorily Woody
TTITLE2=Michal Tucny - Drnova chajda
TTITLE3=Suchy,Grossmann - Tommy
TTITLE4=Mustangove - Aljaska
TTITLE5=Mirek Hoffmann - Oranzovy expres
TTITLE6=Pacifik - Dal,dal,dal
TTITLE7=Fesaci - Pojedou
TTITLE8=Ivan Mladek - Praha-Prcice
TTITLE9=Pavel Bobek - Slama v botach
TTITLE10=Vratislav Vyskocil - Dedeckovy hodiny
TTITLE11=Michal Tucny - Prodavac
TTITLE12=Simek,Vagner,Vycital - Abilene
TTITLE13=Jaroslav Velinsky - No to se vi
TTITLE14=Hoboes - Bedna od whisky
TTITLE15=Hop Trop - Tri krize
TTITLE16=Kamelot - Zachrante kone
TTITLE17=Milena Soukupova - Neutikam pred vzpominkou
TTITLE18=Vera Martinova - Zitra dalsi vlaky pojedou
TTITLE19=Miki Ryvola - Do ptacich ploutvi a rybich kridel
TTITLE20=Schovanky - Stejne za moc nestala
EXTD=
EXTT0=
EXTT1=
EXTT2=
EXTT3=
EXTT4=
EXTT5=
EXTT6=
EXTT7=
EXTT8=
EXTT9=
EXTT10=
EXTT11=
EXTT12=
EXTT13=
EXTT14=
EXTT15=
EXTT16=
EXTT17=
EXTT18=
EXTT19=
EXTT20=
PLAYORDER=
